<svg xmlns="http://www.w3.org/2000/svg"  viewBox="0 0 64 64" width="64px" height="64px" baseProfile="basic"><path fill="#9c34c2" d="M59.158,21.009c-4.372,0-10.53,0-13.433,0c-0.938,0-1.793,0.546-2.178,1.4 c-2.445,5.421-6.032,2.657-6.71,1.017c-0.27-0.652-1.048-3.42-1.65-5.612c-0.16-0.582-1.006-0.509-1.067,0.092l-0.233,2.283 C33.84,20.649,33.452,21,32.989,21l-1.977-0.001c-0.463,0-0.851-0.351-0.898-0.811l-0.232-2.28c-0.061-0.6-0.907-0.674-1.067-0.092 c-0.602,2.192-1.38,4.959-1.649,5.61c-0.678,1.64-4.265,4.403-6.71-1.016c-0.386-0.855-1.246-1.401-2.184-1.401 c-2.906,0-9.058,0-13.428,0c-1.499,0-2.26,1.801-1.209,2.87c3.642,3.703,7.558,9.953,7.232,15.209 c-0.031,0.513,0.225,1.274,0.72,1.274c12.2,0,17.583,7.496,19.512,11.216c0.37,0.714,1.409,0.707,1.769-0.012 c1.865-3.724,7.14-11.204,19.547-11.204c0.496,0,0.752-0.762,0.721-1.274c-0.326-5.254,3.588-11.503,7.229-15.206 C61.417,22.812,60.659,21.009,59.158,21.009z"/><path fill="#fff" d="M14.911,32.699c-0.709-2.187-1.834-4.488-3.24-6.69h1.183c2.762,0,5-2.239,5-5 c-3.044,0-8.837,0-13.011,0c-1.499,0-2.26,1.801-1.209,2.87c3.642,3.703,7.558,9.953,7.232,15.209 c-0.002,0.031,0.001,0.066,0.001,0.099c0.277-0.04,0.554-0.1,0.829-0.189C14.323,38.145,15.762,35.325,14.911,32.699z" opacity=".3"/><path d="M59.447,24.263c-2.312-1.514-5.409-0.87-6.923,1.44c-1.65,2.518-3.501,6.039-4.16,9.896 c-5.135,0.624-9.619,2.469-13.37,5.509c-2.146,1.738-2.476,4.887-0.737,7.032c0.137,0.169,0.284,0.324,0.438,0.47 c2.779-3.756,8.1-8.25,17.721-8.25c0.496,0,0.752-0.762,0.721-1.274c-0.308-4.965,3.17-10.815,6.627-14.569 C59.655,24.435,59.563,24.339,59.447,24.263z" opacity=".15"/><line x1="9.988" x2="12.87" y1="24.509" y2="24.509" fill="none" stroke="#fff" stroke-linecap="round" stroke-linejoin="round" stroke-miterlimit="10" stroke-width="3"/><ellipse cx="32" cy="61" opacity=".3" rx="23" ry="3"/></svg>